<svg xmlns="http://www.w3.org/2000/svg" width="375" viewBox="0 0 375 375" height="375" version="1.0"><defs><clipPath id="a"><path d="M 123.816406 112.5 L 251.316406 112.5 L 251.316406 262.5 L 123.816406 262.5 Z M 123.816406 112.5"/></clipPath><clipPath id="b"><path d="M 161.535156 182.910156 L 213.285156 182.910156 L 213.285156 229.410156 L 161.535156 229.410156 Z M 161.535156 182.910156"/></clipPath><clipPath id="c"><path d="M 47 28 L 108 28 L 108 107 L 47 107 Z M 47 28"/></clipPath><clipPath id="d"><path d="M 29.578125 80.636719 L 81.550781 28.664062 L 107.539062 54.652344 L 55.566406 106.625 Z M 29.578125 80.636719"/></clipPath><clipPath id="e"><path d="M 29.578125 80.636719 L 81.550781 28.664062 L 107.539062 54.652344 L 55.566406 106.625 Z M 29.578125 80.636719"/></clipPath><clipPath id="f"><path d="M 267 47 L 346 47 L 346 108 L 267 108 Z M 267 47"/></clipPath><clipPath id="g"><path d="M 293.746094 29.105469 L 345.71875 81.078125 L 319.730469 107.0625 L 267.757812 55.089844 Z M 293.746094 29.105469"/></clipPath><clipPath id="h"><path d="M 293.746094 29.105469 L 345.71875 81.078125 L 319.730469 107.0625 L 267.757812 55.089844 Z M 293.746094 29.105469"/></clipPath><clipPath id="i"><path d="M 266 267 L 328 267 L 328 347 L 266 347 Z M 266 267"/></clipPath><clipPath id="j"><path d="M 345.402344 293.667969 L 292.902344 346.171875 L 266.382812 319.652344 L 318.886719 267.152344 Z M 345.402344 293.667969"/></clipPath><clipPath id="k"><path d="M 345.402344 293.667969 L 292.902344 346.171875 L 266.382812 319.652344 L 318.886719 267.152344 Z M 345.402344 293.667969"/></clipPath><clipPath id="l"><path d="M 26 268 L 105 268 L 105 329 L 26 329 Z M 26 268"/></clipPath><clipPath id="m"><path d="M 78.726562 346.792969 L 26.753906 294.820312 L 52.738281 268.835938 L 104.710938 320.808594 Z M 78.726562 346.792969"/></clipPath><clipPath id="n"><path d="M 78.726562 346.792969 L 26.753906 294.820312 L 52.738281 268.835938 L 104.710938 320.808594 Z M 78.726562 346.792969"/></clipPath></defs><path fill="#4A6444" d="M 34.882812 152.617188 L 34.882812 222.378906 L 152.855469 340.351562 L 222.621094 340.351562 L 340.59375 222.378906 L 340.59375 152.617188 L 222.621094 34.640625 L 152.855469 34.640625 L 34.882812 152.617188 M 44.511719 156.015625 L 156.253906 44.273438 L 219.222656 44.273438 L 330.960938 156.015625 L 330.960938 218.980469 L 219.222656 330.722656 L 156.253906 330.722656 L 44.511719 218.980469 L 44.511719 156.015625"/><path fill="#4A6444" d="M 104.179688 53.171875 L 52.910156 104.394531 L 52.910156 270.441406 L 104.179688 321.664062 L 270.890625 321.664062 L 322.160156 270.441406 L 322.160156 104.394531 L 270.890625 53.171875 L 104.179688 53.171875 M 108.761719 62.738281 L 266.3125 62.738281 L 312.585938 108.972656 L 312.585938 265.863281 L 266.3125 312.097656 L 108.761719 312.097656 L 62.484375 265.863281 L 62.484375 108.972656 L 108.761719 62.738281"/><g clip-path="url(#a)"><path fill="#5B4523" d="M 234.941406 112.472656 C 234.53125 112.488281 234.125 112.5625 233.753906 112.703125 L 222.394531 116.972656 L 221.792969 115.402344 C 221.347656 114.144531 220.160156 113.289062 218.808594 113.265625 C 217.714844 113.226562 216.679688 113.75 216.054688 114.640625 C 215.417969 115.542969 215.289062 116.691406 215.6875 117.710938 L 216.296875 119.328125 C 209.691406 122.167969 204.195312 127.097656 200.691406 133.390625 L 199.148438 136.179688 L 195.714844 142.34375 C 195.714844 142.34375 195.714844 142.332031 195.714844 142.34375 L 190.628906 151.492188 C 189.085938 151.566406 187.542969 151.628906 185.9375 151.628906 C 178.066406 151.628906 170.941406 150.726562 166.042969 149.363281 C 163.582031 148.6875 161.683594 147.859375 160.648438 147.183594 C 160.304688 146.957031 160.242188 146.867188 160.113281 146.738281 C 162.078125 144.890625 170.902344 141.847656 185.9375 141.847656 C 186.828125 141.847656 187.632812 141.898438 188.484375 141.910156 L 192.042969 135.503906 C 189.953125 135.390625 187.898438 135.324219 185.9375 135.324219 C 174.089844 135.324219 158.75 137.390625 154.515625 143.171875 C 154.425781 143.289062 146.761719 153.859375 146.761719 158.152344 C 146.761719 158.382812 146.839844 158.574219 146.863281 158.800781 C 132.671875 170.621094 123.910156 189.613281 123.910156 213.585938 C 123.910156 228.007812 131.332031 240.449219 142.925781 249.023438 C 154.515625 257.597656 170.277344 262.5 187.566406 262.5 C 204.871094 262.5 220.632812 257.519531 232.210938 248.910156 C 243.804688 240.3125 251.226562 227.878906 251.226562 213.585938 C 251.226562 188.902344 240.792969 169.539062 225.058594 157.832031 C 224.738281 153.414062 217.558594 143.453125 217.355469 143.183594 C 215.417969 140.523438 211.121094 138.664062 205.917969 137.414062 L 206.390625 136.5625 C 209.15625 131.605469 213.441406 127.722656 218.59375 125.417969 L 219.078125 126.691406 C 219.703125 128.371094 221.589844 129.238281 223.273438 128.601562 C 224.96875 127.964844 225.824219 126.078125 225.1875 124.398438 L 224.6875 123.074219 L 236.050781 118.816406 C 237.542969 118.269531 238.433594 116.742188 238.167969 115.175781 C 237.886719 113.609375 236.523438 112.472656 234.941406 112.472656 Z M 202.601562 143.390625 C 207.574219 144.40625 210.6875 145.734375 211.769531 146.738281 C 211.644531 146.855469 211.566406 146.957031 211.222656 147.183594 C 210.191406 147.859375 208.289062 148.6875 205.828125 149.363281 C 203.761719 149.9375 201.238281 150.40625 198.484375 150.777344 Z M 215.417969 152.152344 C 216.988281 154.6875 218.402344 157.144531 218.582031 158 L 218.582031 158.011719 C 218.554688 158.0625 217.855469 158.953125 216.195312 159.820312 C 214.578125 160.648438 212.167969 161.503906 209.257812 162.226562 C 208.25 162.46875 207.089844 162.699219 205.929688 162.929688 C 205.472656 163.003906 205.078125 163.105469 204.605469 163.195312 C 203.609375 163.363281 202.488281 163.503906 201.402344 163.65625 C 200.5625 163.757812 199.757812 163.898438 198.878906 164 C 197.871094 164.101562 196.761719 164.164062 195.691406 164.253906 C 194.710938 164.328125 193.753906 164.433594 192.734375 164.484375 C 190.589844 164.609375 188.320312 164.675781 185.9375 164.675781 C 183.601562 164.675781 181.382812 164.609375 179.265625 164.496094 C 178.234375 164.445312 177.265625 164.34375 176.269531 164.265625 C 175.300781 164.191406 174.292969 164.125 173.375 164.023438 C 172.164062 163.898438 171.027344 163.742188 169.882812 163.578125 C 169.257812 163.488281 168.582031 163.414062 167.980469 163.3125 C 166.414062 163.054688 164.921875 162.777344 163.554688 162.457031 C 157.640625 161.09375 153.761719 158.699219 153.355469 158.101562 C 153.609375 157.03125 154.9375 154.648438 156.453125 152.164062 C 156.65625 152.316406 156.863281 152.496094 157.066406 152.636719 C 159.015625 153.910156 161.425781 154.851562 164.296875 155.644531 C 170.023438 157.234375 177.582031 158.152344 185.9375 158.152344 C 194.289062 158.152344 201.851562 157.234375 207.574219 155.644531 C 210.445312 154.851562 212.855469 153.910156 214.804688 152.636719 C 215.011719 152.496094 215.214844 152.316406 215.417969 152.152344 Z M 221.859375 163.871094 C 235.503906 174.394531 244.695312 191.167969 244.695312 213.585938 C 244.695312 225.648438 238.589844 236.054688 228.324219 243.6875 C 218.058594 251.304688 203.609375 255.976562 187.566406 255.976562 C 171.511719 255.976562 157.078125 251.378906 146.8125 243.789062 C 136.535156 236.183594 130.441406 225.800781 130.441406 213.585938 C 130.441406 191.488281 138.371094 174.914062 150.675781 164.40625 C 153.34375 166.253906 157.167969 167.628906 161.492188 168.648438 C 161.695312 168.710938 161.875 168.761719 162.089844 168.8125 C 167.191406 169.984375 173.335938 170.761719 180.058594 171.054688 C 181.984375 171.144531 183.933594 171.195312 185.9375 171.195312 C 187.796875 171.195312 189.8125 171.144531 191.929688 171.042969 C 194.007812 170.953125 196.011719 170.800781 197.960938 170.621094 C 198.050781 170.609375 198.140625 170.609375 198.230469 170.597656 C 200.421875 170.378906 202.511719 170.125 204.503906 169.808594 C 204.59375 169.792969 204.679688 169.792969 204.757812 169.769531 C 206.835938 169.4375 208.8125 169.054688 210.625 168.609375 C 210.648438 168.609375 210.675781 168.597656 210.699219 168.597656 C 212.230469 168.214844 213.671875 167.792969 215.046875 167.324219 C 215.1875 167.273438 215.328125 167.222656 215.46875 167.171875 C 216.796875 166.710938 218.046875 166.191406 219.15625 165.628906 C 219.167969 165.617188 219.179688 165.617188 219.191406 165.605469 C 219.21875 165.589844 219.230469 165.578125 219.242188 165.566406 C 220.238281 165.042969 221.09375 164.484375 221.859375 163.871094 Z M 221.859375 163.871094"/></g><g clip-path="url(#b)"><path fill="#228A44" d="M 175.542969 193.535156 C 168.101562 197.507812 164.539062 206.605469 162.910156 214.460938 C 162.761719 215.191406 161.5625 225.433594 162.144531 227.660156 C 164.011719 225.226562 165.953125 222.859375 167.980469 220.570312 C 168.578125 219.316406 169.164062 218.054688 169.550781 216.730469 C 170.628906 213.035156 171.210938 209.234375 171.421875 205.390625 C 171.453125 205.574219 171.472656 205.726562 171.488281 205.859375 C 172.070312 209.683594 171.902344 213.6875 170.863281 217.429688 C 172.859375 215.320312 174.925781 213.265625 177.074219 211.28125 C 178.144531 210.296875 179.246094 209.347656 180.363281 208.414062 C 180.902344 207.246094 181.410156 206.058594 181.726562 204.8125 C 182.34375 202.398438 182.773438 199.953125 183.003906 197.46875 C 183.542969 200.597656 183.398438 203.625 182.617188 206.578125 C 187.746094 202.539062 193.246094 198.921875 198.65625 195.328125 C 195.78125 197.914062 192.863281 200.441406 189.835938 202.851562 C 188.15625 204.195312 186.464844 205.53125 184.789062 206.890625 C 189.328125 205.472656 194.117188 204.882812 198.871094 205.175781 C 195.335938 205.972656 191.757812 206.542969 188.277344 207.597656 C 185.765625 208.359375 183.304688 209.199219 180.875 210.160156 C 179.976562 210.9375 179.089844 211.730469 178.226562 212.546875 C 176.230469 214.425781 174.234375 216.296875 172.269531 218.195312 C 178.210938 215.984375 184.65625 215.332031 190.9375 216.308594 C 187.460938 216.472656 183.984375 216.75 180.585938 217.550781 C 176.53125 218.507812 172.695312 219.808594 168.925781 221.507812 C 168.417969 222.027344 167.898438 222.542969 167.394531 223.070312 C 165.796875 224.746094 164.203125 226.433594 162.609375 228.117188 C 167.703125 228.960938 173.101562 229.40625 178.210938 228.578125 C 184.375 227.582031 191.191406 224.800781 195.757812 220.445312 C 202.15625 214.347656 204.449219 205.484375 206.800781 197.289062 C 208.03125 193.011719 209.808594 186.546875 213.242188 182.910156 C 200.589844 189.761719 186.753906 187.546875 175.542969 193.535156 Z M 175.542969 193.535156"/></g><g clip-path="url(#c)"><g clip-path="url(#d)"><g clip-path="url(#e)"><path fill="#4A6444" d="M 55.566406 70.242188 L 49.5 76.308594 L 55.566406 82.371094 L 50.367188 87.570312 L 57.296875 94.496094 L 50.367188 101.425781 L 55.566406 106.625 L 85.015625 77.171875 L 64.226562 56.386719 L 83.285156 37.328125 L 100.609375 54.652344 L 89.347656 65.914062 L 79.816406 56.386719 L 83.285156 52.917969 L 87.617188 57.25 L 91.082031 53.785156 L 83.285156 45.988281 L 72.890625 56.386719 L 89.347656 72.84375 L 107.539062 54.652344 L 81.550781 28.664062 L 47.769531 62.445312 Z M 55.566406 70.242188"/></g></g></g><g clip-path="url(#f)"><g clip-path="url(#g)"><g clip-path="url(#h)"><path fill="#4A6444" d="M 304.140625 55.09375 L 298.078125 49.027344 L 292.011719 55.09375 L 286.816406 49.894531 L 279.886719 56.824219 L 272.960938 49.898438 L 267.761719 55.09375 L 297.207031 84.542969 L 317.996094 63.753906 L 337.050781 82.808594 L 319.726562 100.132812 L 308.464844 88.871094 L 317.996094 79.339844 L 321.460938 82.808594 L 317.132812 87.140625 L 320.59375 90.605469 L 328.390625 82.808594 L 317.996094 72.414062 L 301.539062 88.871094 L 319.726562 107.058594 L 345.710938 81.074219 L 311.9375 47.296875 Z M 304.140625 55.09375"/></g></g></g><g clip-path="url(#i)"><g clip-path="url(#j)"><g clip-path="url(#k)"><path fill="#4A6444" d="M 319.074219 304.089844 L 325.199219 297.964844 L 319.011719 291.773438 L 324.261719 286.523438 L 317.191406 279.453125 L 324.191406 272.457031 L 318.886719 267.152344 L 289.136719 296.902344 L 310.347656 318.113281 L 291.097656 337.367188 L 273.417969 319.6875 L 284.796875 308.3125 L 294.519531 318.035156 L 291.015625 321.539062 L 286.597656 317.117188 L 283.097656 320.617188 L 291.050781 328.574219 L 301.554688 318.070312 L 284.761719 301.277344 L 266.382812 319.652344 L 292.902344 346.171875 L 327.027344 312.042969 Z M 319.074219 304.089844"/></g></g></g><g clip-path="url(#l)"><g clip-path="url(#m)"><g clip-path="url(#n)"><path fill="#4A6444" d="M 68.328125 320.804688 L 74.394531 326.871094 L 80.457031 320.804688 L 85.65625 326.003906 L 92.582031 319.074219 L 99.511719 326 L 104.707031 320.804688 L 75.261719 291.359375 L 54.476562 312.144531 L 35.417969 293.089844 L 52.742188 275.765625 L 64.003906 287.027344 L 54.476562 296.558594 L 51.007812 293.089844 L 55.339844 288.757812 L 51.875 285.296875 L 44.082031 293.089844 L 54.476562 303.484375 L 70.933594 287.027344 L 52.746094 268.839844 L 26.757812 294.824219 L 60.535156 328.601562 Z M 68.328125 320.804688"/></g></g></g></svg>