<svg xmlns="http://www.w3.org/2000/svg" clip-rule="evenodd" fill-rule="evenodd" stroke-linejoin="round"
     stroke-miterlimit="1.41421" viewBox="0 0 24 24" class="ico-blank mt-0" height="50" width="50">
    <path d="m2.452 21.411c-3.176-3.469-3.166-15.375-.002-18.817 3.163-3.442 15.925-3.474 19.101-.005 3.176 3.47 3.16 15.375-.004 18.816-3.163 3.442-15.919 3.476-19.095.006zm9.946-16.986c1.523.012 3.04.487 4.29 1.359.769.499 1.004 1.485.304 2.241-.126.128-.253.255-.379.382-.256.257-.629.629-.629.629-.521.469-1.238.516-1.854.113-1.568-1.028-3.756-.485-4.733 1.269-1.008 1.81-.03 4.049 1.789 4.728.996.372 2.117.252 3.048-.361.254-.167 1.098-.458 1.745.182.306.302.615.608.895.888.338.337.486.618.518 1.001.064.763-.372 1.263-1.385 1.785-2.712 1.489-6.111 1.25-8.673-.974-2.579-2.194-3.336-6.159-1.678-9.196 1.35-2.474 3.823-4.01 6.557-4.045.061-.001.123-.001.185-.001z"></path>
</svg>